<svg width="50" height="50" viewBox="0 0 50 50" fill="none" xmlns="http://www.w3.org/2000/svg">
<path d="M40.2344 0H9.76562C4.37222 0 0 4.37222 0 9.76562V40.2344C0 45.6278 4.37222 50 9.76562 50H40.2344C45.6278 50 50 45.6278 50 40.2344V9.76562C50 4.37222 45.6278 0 40.2344 0Z" fill="url(#paint0_linear_1432_22524)"/>
<path d="M25.2371 28.4359L14.9531 25.2706V30.5571C14.9531 33.001 19.5589 34.9824 25.2401 34.9824C30.9214 34.9824 35.5276 33.001 35.5276 30.5571C35.5276 30.5375 35.5213 30.518 35.5209 30.4997V25.2706L25.2371 28.4359Z" fill="white"/>
<path d="M8 21.6316L11.6739 22.9458L11.987 22.2753L13.3367 22.1606L13.5292 22.3608L12.371 22.6355L12.2021 23.1351C12.2021 23.1351 9.58603 28.6038 9.97021 31.2789C9.97021 31.2789 11.603 32.2529 13.2351 31.2789L13.6687 23.9645V23.3556L16.0982 22.8075L15.9267 23.2304L14.1153 23.8195L14.9531 24.1188L25.237 27.2831L35.5208 24.1179L42.4739 21.6312L25.237 15.0001L8 21.6316Z" fill="white"/>
<defs>
<linearGradient id="paint0_linear_1432_22524" x1="25" y1="0" x2="25" y2="50" gradientUnits="userSpaceOnUse">
<stop stop-color="#FEAE07"/>
<stop offset="1" stop-color="#FD2959"/>
</linearGradient>
</defs>
</svg>
