<svg width="16" height="16" viewBox="0 0 16 16" fill="none" xmlns="http://www.w3.org/2000/svg">
<path d="M15.958 6.12737C15.8533 5.80337 15.566 5.57337 15.226 5.54271L10.608 5.12337L8.78201 0.849374C8.64734 0.536041 8.34067 0.333374 8.00001 0.333374C7.65934 0.333374 7.35267 0.536041 7.21801 0.850041L5.39201 5.12337L0.773339 5.54271C0.434006 5.57404 0.147339 5.80337 0.0420058 6.12737C-0.0633275 6.45137 0.0340058 6.80671 0.290672 7.03071L3.78134 10.092L2.75201 14.626C2.67667 14.9594 2.80601 15.304 3.08267 15.504C3.23134 15.6114 3.40534 15.666 3.58067 15.666C3.73201 15.666 3.88201 15.6254 4.01667 15.5447L8.00001 13.164L11.982 15.5447C12.2733 15.72 12.6407 15.704 12.9167 15.504C13.1933 15.3034 13.3227 14.9587 13.2473 14.626L12.218 10.092L15.7087 7.03137C15.9653 6.80671 16.0633 6.45204 15.958 6.12737Z" fill="#FFC107"/>
</svg>
