<svg width="14" height="14" viewBox="0 0 14 14" fill="none" xmlns="http://www.w3.org/2000/svg">
<path d="M7.00004 7.66671C6.27484 7.66671 5.56593 7.45166 4.96295 7.04876C4.35997 6.64587 3.89 6.07321 3.61248 5.40322C3.33496 4.73322 3.26235 3.99597 3.40383 3.28471C3.54531 2.57345 3.89452 1.92011 4.40732 1.40732C4.92011 0.894525 5.57345 0.545309 6.28471 0.40383C6.99597 0.26235 7.73322 0.334963 8.40321 0.612484C9.07321 0.890005 9.64586 1.35997 10.0488 1.96295C10.4517 2.56593 10.6667 3.27484 10.6667 4.00004C10.6649 4.97196 10.2781 5.90357 9.59082 6.59082C8.90357 7.27807 7.97196 7.66495 7.00004 7.66671ZM7.00004 1.66671C6.53855 1.66671 6.08742 1.80356 5.70371 2.05995C5.31999 2.31634 5.02093 2.68075 4.84432 3.10711C4.66772 3.53348 4.62151 4.00263 4.71154 4.45525C4.80157 4.90788 5.0238 5.32364 5.35012 5.64996C5.67645 5.97628 6.09221 6.19851 6.54483 6.28854C6.99745 6.37857 7.46661 6.33237 7.89297 6.15576C8.31933 5.97916 8.68375 5.68009 8.94014 5.29637C9.19653 4.91266 9.33337 4.46153 9.33337 4.00004C9.33337 3.3812 9.08754 2.78771 8.64996 2.35013C8.21237 1.91254 7.61888 1.66671 7.00004 1.66671V1.66671ZM13 13.6667H1.00004C0.82323 13.6667 0.65366 13.5965 0.528636 13.4714C0.403612 13.3464 0.333374 13.1769 0.333374 13C0.333374 11.7624 0.825039 10.5754 1.70021 9.70021C2.57538 8.82504 3.76236 8.33338 5.00004 8.33338H9.00004C10.2377 8.33338 11.4247 8.82504 12.2999 9.70021C13.175 10.5754 13.6667 11.7624 13.6667 13C13.6667 13.1769 13.5965 13.3464 13.4714 13.4714C13.3464 13.5965 13.1769 13.6667 13 13.6667ZM1.73337 12.3334H12.2667C12.113 11.5805 11.7039 10.9038 11.1086 10.4178C10.5134 9.9319 9.76848 9.66655 9.00004 9.66671H5.00004C4.23161 9.66655 3.48672 9.9319 2.89144 10.4178C2.29616 10.9038 1.88706 11.5805 1.73337 12.3334V12.3334Z" fill="#21334F"/>
</svg>
