<svg width="50" height="50" viewBox="0 0 50 50" fill="none" xmlns="http://www.w3.org/2000/svg">
<path d="M40.2344 0H9.76562C4.37222 0 0 4.37222 0 9.76562V40.2344C0 45.6278 4.37222 50 9.76562 50H40.2344C45.6278 50 50 45.6278 50 40.2344V9.76562C50 4.37222 45.6278 0 40.2344 0Z" fill="url(#paint0_linear_1398_18764)"/>
<path d="M25.2371 28.436L14.9531 25.2708V30.5572C14.9531 33.0011 19.5589 34.9826 25.2401 34.9826C30.9214 34.9826 35.5276 33.0011 35.5276 30.5572C35.5276 30.5376 35.5213 30.5181 35.5209 30.4999V25.2708L25.2371 28.436Z" fill="white"/>
<path d="M8 21.6317L11.6739 22.9459L11.987 22.2754L13.3367 22.1607L13.5292 22.3609L12.371 22.6356L12.2021 23.1352C12.2021 23.1352 9.58603 28.604 9.97021 31.2791C9.97021 31.2791 11.603 32.253 13.2351 31.2791L13.6687 23.9646V23.3557L16.0982 22.8077L15.9267 23.2305L14.1153 23.8196L14.9531 24.1189L25.237 27.2833L35.5208 24.118L42.4739 21.6313L25.237 15.0002L8 21.6317Z" fill="white"/>
<defs>
<linearGradient id="paint0_linear_1398_18764" x1="25" y1="0" x2="25" y2="50" gradientUnits="userSpaceOnUse">
<stop stop-color="#FEAE07"/>
<stop offset="1" stop-color="#FD2959"/>
</linearGradient>
</defs>
</svg>
