<svg width="9" height="7" viewBox="0 0 9 7" fill="none" xmlns="http://www.w3.org/2000/svg">
<path d="M8.3535 2.64646L5.8535 0.146459C5.7592 0.0553804 5.6329 0.00498321 5.5018 0.00612242C5.3707 0.00726163 5.24529 0.059846 5.15259 0.15255C5.05989 0.245254 5.0073 0.37066 5.00616 0.501759C5.00502 0.632857 5.05542 0.759158 5.1465 0.853459L6.793 2.49996H1C0.867392 2.49996 0.740215 2.55264 0.646447 2.64641C0.552679 2.74017 0.5 2.86735 0.5 2.99996C0.5 3.13257 0.552679 3.25974 0.646447 3.35351C0.740215 3.44728 0.867392 3.49996 1 3.49996H6.793L5.1465 5.14646C5.09874 5.19258 5.06065 5.24776 5.03445 5.30876C5.00825 5.36976 4.99445 5.43537 4.99387 5.50176C4.9933 5.56815 5.00595 5.63399 5.03109 5.69544C5.05623 5.75688 5.09336 5.81271 5.1403 5.85966C5.18725 5.9066 5.24308 5.94373 5.30452 5.96887C5.36597 5.99401 5.43181 6.00666 5.4982 6.00608C5.56459 6.00551 5.6302 5.99171 5.6912 5.96551C5.7522 5.93931 5.80738 5.90121 5.8535 5.85346L8.3535 3.35346C8.44724 3.2597 8.49989 3.13254 8.49989 2.99996C8.49989 2.86738 8.44724 2.74022 8.3535 2.64646Z" fill="#21334F"/>
</svg>
