<svg width="16" height="16" viewBox="0 0 16 16" fill="none" xmlns="http://www.w3.org/2000/svg">
<path d="M15.375 2.16456C15.375 1.45825 14.8219 0.875 14.1421 0.875H1.85775C1.17813 0.875 0.625 1.45825 0.625 2.16456V12.0682C0.625 12.7745 1.17813 13.3438 1.85775 13.3438H4.34375V14.8664C4.34375 15.0045 4.44809 15.125 4.58616 15.125H11.4138C11.5519 15.125 11.6562 15.0045 11.6562 14.8664V13.3438H14.1421C14.8219 13.3438 15.375 12.7745 15.375 12.0682V4.18981C15.375 4.189 15.375 4.18822 15.375 4.18741C15.375 4.18659 15.375 4.18581 15.375 4.185V2.16456ZM1.85775 1.375H14.1421C14.5462 1.375 14.875 1.73394 14.875 2.16456V3.9375H1.125V2.16456C1.125 1.73394 1.45372 1.375 1.85775 1.375ZM11.1562 14.625H4.84375V6.0625H9.5V7.46397C9.50177 7.53165 9.52971 7.59602 9.57794 7.64353C9.62618 7.69104 9.69095 7.718 9.75866 7.71875H11.1562V14.625ZM10.8103 7.21875H10V6.41231L10.8103 7.21875ZM14.1421 12.8438H11.6562V7.46397C11.657 7.43135 11.6512 7.39891 11.6392 7.36855C11.6273 7.33818 11.6095 7.3105 11.5867 7.28709L9.93359 5.63397C9.91067 5.61098 9.88338 5.59281 9.85332 5.58053C9.82327 5.56826 9.79106 5.56213 9.75859 5.5625H4.58616C4.55393 5.56225 4.52197 5.56848 4.4922 5.58082C4.46242 5.59316 4.43543 5.61135 4.41282 5.63433C4.39021 5.6573 4.37244 5.68458 4.36058 5.71454C4.34871 5.74451 4.34299 5.77656 4.34375 5.80878V12.8438H1.85775C1.45372 12.8438 1.125 12.4988 1.125 12.0682V4.4375H14.875V12.0682C14.875 12.4988 14.5462 12.8438 14.1421 12.8438Z" fill="#21334F"/>
</svg>
