<svg width="16" height="16" viewBox="0 0 16 16" fill="none" xmlns="http://www.w3.org/2000/svg">
<path d="M15.9576 6.12737C15.8529 5.80337 15.5656 5.57337 15.2256 5.54271L10.6076 5.12337L8.78158 0.849374C8.64691 0.536041 8.34024 0.333374 7.99958 0.333374C7.65891 0.333374 7.35224 0.536041 7.21758 0.850041L5.39158 5.12337L0.772912 5.54271C0.433579 5.57404 0.146912 5.80337 0.0415786 6.12737C-0.0637547 6.45137 0.0335786 6.80671 0.290245 7.03071L3.78091 10.092L2.75158 14.626C2.67624 14.9594 2.80558 15.304 3.08225 15.504C3.23091 15.6114 3.40491 15.666 3.58024 15.666C3.73158 15.666 3.88158 15.6254 4.01624 15.5447L7.99958 13.164L11.9816 15.5447C12.2729 15.72 12.6402 15.704 12.9162 15.504C13.1929 15.3034 13.3222 14.9587 13.2469 14.626L12.2176 10.092L15.7082 7.03137C15.9649 6.80671 16.0629 6.45204 15.9576 6.12737Z" fill="black" fill-opacity="0.06"/>
</svg>
