<svg width="402" height="402" viewBox="0 0 402 402" fill="none" xmlns="http://www.w3.org/2000/svg">
<g clip-path="url(#clip0_128_5458)">
<path fill-rule="evenodd" clip-rule="evenodd" d="M373.037 322.332C364.428 338.781 348.139 355.457 329.436 360.466C282.536 373.024 252.31 343.01 207.258 339.418C181.219 337.342 124.412 373.008 98.6889 313.611C84.9647 281.921 25.4111 312.616 22.1298 242.559C20.4674 207.065 45.5841 192.298 46.9726 163.021C48.2458 136.174 5.40731 90.6179 41.5691 65.3048C92.1253 29.9154 146.163 80.2177 165.992 78.8459C203.47 76.2531 234.345 58.7734 274.83 57.8998C301.31 57.3285 315.829 67.1221 326.7 76.7771C355.598 102.442 338.982 137.556 350.266 173.851C355.179 189.65 365.671 201.211 373.796 215.139C396.859 254.677 390.354 289.245 373.037 322.332Z" fill="#EBF3FF"/>
<path fill-rule="evenodd" clip-rule="evenodd" d="M229.414 95.6493C229.414 90.7174 225.41 86.7134 220.478 86.7134H22.2558C17.3239 86.7134 13.3199 90.7174 13.3199 95.6493V256.495C13.3199 261.427 17.3239 265.431 22.2558 265.431H220.478C225.41 265.431 229.414 261.427 229.414 256.495V95.6493Z" fill="#FCEDE8"/>
<path fill-rule="evenodd" clip-rule="evenodd" d="M13.3201 114.327H229.414V95.6493C229.414 90.7174 225.41 86.7134 220.478 86.7134H22.2558C17.3239 86.7134 13.3199 90.7174 13.3199 95.6493V114.327H13.3201Z" fill="#00D0B9"/>
<path d="M81.771 89.8842C81.7695 89.8842 81.7682 89.884 81.7671 89.8835C81.766 89.883 81.7651 89.8822 81.7644 89.8812C81.7638 89.8802 81.7634 89.8789 81.7634 89.8774C81.7634 89.8762 81.7637 89.8751 81.7641 89.8743C81.7646 89.8734 81.7652 89.8727 81.766 89.8722C81.7668 89.8717 81.7677 89.8713 81.7687 89.871C81.7698 89.8707 81.7708 89.8706 81.772 89.8704C81.7733 89.8703 81.7744 89.8702 81.7752 89.8701C81.776 89.8699 81.7766 89.8697 81.7769 89.8695C81.7773 89.8692 81.7775 89.8689 81.7775 89.8684V89.8683C81.7775 89.8674 81.7772 89.8666 81.7766 89.8661C81.776 89.8656 81.7752 89.8654 81.7741 89.8654C81.773 89.8654 81.7721 89.8656 81.7714 89.8661C81.7707 89.8666 81.7703 89.8672 81.7701 89.868L81.7642 89.8675C81.7645 89.8661 81.7651 89.8649 81.766 89.8639C81.7668 89.8629 81.768 89.8621 81.7693 89.8616C81.7707 89.861 81.7723 89.8608 81.7741 89.8608C81.7754 89.8608 81.7766 89.8609 81.7778 89.8612C81.7789 89.8615 81.7799 89.862 81.7808 89.8626C81.7818 89.8632 81.7825 89.864 81.783 89.865C81.7835 89.8659 81.7838 89.8671 81.7838 89.8685V89.8838H81.7778V89.8806H81.7776C81.7773 89.8813 81.7768 89.882 81.7762 89.8825C81.7755 89.883 81.7748 89.8835 81.7739 89.8838C81.7731 89.8841 81.7721 89.8842 81.771 89.8842ZM81.7728 89.8799C81.7737 89.8799 81.7745 89.8797 81.7752 89.8793C81.7759 89.8789 81.7765 89.8784 81.7769 89.8778C81.7773 89.8772 81.7775 89.8765 81.7775 89.8757V89.8733C81.7773 89.8734 81.777 89.8735 81.7767 89.8736C81.7764 89.8737 81.776 89.8738 81.7756 89.8739C81.7751 89.874 81.7747 89.874 81.7743 89.8741C81.7739 89.8742 81.7735 89.8742 81.7731 89.8743C81.7724 89.8744 81.7717 89.8746 81.7712 89.8748C81.7706 89.875 81.7702 89.8754 81.7699 89.8758C81.7696 89.8761 81.7695 89.8766 81.7695 89.8772C81.7695 89.8781 81.7698 89.8787 81.7704 89.8792C81.771 89.8796 81.7718 89.8799 81.7728 89.8799ZM81.797 89.8842C81.7953 89.8842 81.7937 89.8837 81.7923 89.8828C81.791 89.8819 81.7899 89.8806 81.789 89.8789C81.7882 89.8771 81.7878 89.875 81.7878 89.8725C81.7878 89.8699 81.7882 89.8677 81.7891 89.866C81.7899 89.8642 81.791 89.8629 81.7924 89.8621C81.7938 89.8612 81.7954 89.8608 81.797 89.8608C81.7983 89.8608 81.7994 89.861 81.8002 89.8614C81.8011 89.8618 81.8018 89.8624 81.8023 89.863C81.8028 89.8636 81.8032 89.8643 81.8035 89.8649H81.8037V89.8535H81.81V89.8838H81.8038V89.8801H81.8035C81.8032 89.8808 81.8028 89.8814 81.8022 89.882C81.8017 89.8826 81.801 89.8831 81.8001 89.8836C81.7993 89.884 81.7983 89.8842 81.797 89.8842ZM81.799 89.8791C81.8001 89.8791 81.8009 89.8789 81.8016 89.8783C81.8023 89.8778 81.8029 89.877 81.8032 89.876C81.8036 89.875 81.8038 89.8738 81.8038 89.8724C81.8038 89.8711 81.8036 89.8699 81.8033 89.8689C81.8029 89.8679 81.8023 89.8671 81.8016 89.8666C81.8009 89.8661 81.8001 89.8658 81.799 89.8658C81.798 89.8658 81.7971 89.8661 81.7964 89.8666C81.7957 89.8672 81.7952 89.868 81.7948 89.869C81.7944 89.87 81.7943 89.8711 81.7943 89.8724C81.7943 89.8737 81.7944 89.8749 81.7948 89.8759C81.7952 89.8769 81.7957 89.8777 81.7964 89.8783C81.7971 89.8789 81.798 89.8791 81.799 89.8791Z" fill="white"/>
<path d="M34.2489 163.536C41.6302 163.536 47.6138 157.552 47.6138 150.171C47.6138 142.79 41.6302 136.806 34.2489 136.806C26.8677 136.806 20.884 142.79 20.884 150.171C20.884 157.552 26.8677 163.536 34.2489 163.536Z" fill="white"/>
<path d="M30.8287 120.876C30.8285 120.875 30.8281 120.874 30.8272 120.874C30.8264 120.873 30.8254 120.873 30.8241 120.873C30.8232 120.873 30.8225 120.873 30.8218 120.873C30.8211 120.874 30.8206 120.874 30.8202 120.875C30.8199 120.875 30.8197 120.876 30.8197 120.876C30.8197 120.877 30.8198 120.877 30.8201 120.878C30.8203 120.878 30.8207 120.878 30.8211 120.879C30.8215 120.879 30.8219 120.879 30.8223 120.879C30.8228 120.88 30.8232 120.88 30.8236 120.88L30.8256 120.88C30.8262 120.88 30.8267 120.881 30.8274 120.881C30.828 120.881 30.8287 120.881 30.8292 120.882C30.8298 120.882 30.8303 120.883 30.8307 120.883C30.8311 120.884 30.8313 120.885 30.8313 120.886C30.8313 120.887 30.831 120.888 30.8304 120.889C30.8299 120.89 30.8291 120.89 30.828 120.891C30.8269 120.891 30.8256 120.892 30.824 120.892C30.8226 120.892 30.8213 120.891 30.8203 120.891C30.8192 120.891 30.8184 120.89 30.8178 120.889C30.8172 120.888 30.8168 120.887 30.8167 120.886H30.8193C30.8193 120.887 30.8196 120.888 30.82 120.888C30.8205 120.889 30.8211 120.889 30.8218 120.889C30.8225 120.889 30.8232 120.89 30.824 120.89C30.8249 120.89 30.8258 120.889 30.8265 120.889C30.8273 120.889 30.8279 120.888 30.8283 120.888C30.8287 120.887 30.8289 120.887 30.8289 120.886C30.8289 120.885 30.8288 120.885 30.8284 120.884C30.828 120.884 30.8275 120.883 30.8269 120.883C30.8263 120.883 30.8256 120.883 30.8249 120.882L30.8224 120.882C30.8209 120.881 30.8196 120.881 30.8187 120.88C30.8178 120.879 30.8173 120.878 30.8173 120.877C30.8173 120.875 30.8176 120.874 30.8182 120.874C30.8188 120.873 30.8197 120.872 30.8207 120.872C30.8217 120.871 30.8229 120.871 30.8242 120.871C30.8255 120.871 30.8267 120.871 30.8277 120.872C30.8287 120.872 30.8295 120.873 30.8301 120.873C30.8307 120.874 30.831 120.875 30.831 120.876H30.8287Z" fill="black"/>
<path d="M63.2883 163.536C70.6696 163.536 76.6532 157.552 76.6532 150.171C76.6532 142.79 70.6696 136.806 63.2883 136.806C55.9071 136.806 49.9234 142.79 49.9234 150.171C49.9234 157.552 55.9071 163.536 63.2883 163.536Z" fill="white"/>
<path d="M57.9588 120.871H57.9617L57.9686 120.888H57.9688L57.9757 120.871H57.9786V120.891H57.9763V120.876H57.9761L57.9698 120.891H57.9676L57.9613 120.876H57.9611V120.891H57.9588V120.871Z" fill="black"/>
<path d="M92.3279 163.536C99.7091 163.536 105.693 157.552 105.693 150.171C105.693 142.79 99.7091 136.806 92.3279 136.806C84.9466 136.806 78.963 142.79 78.963 150.171C78.963 157.552 84.9466 163.536 92.3279 163.536Z" fill="white"/>
<path d="M89.411 142.914C89.4097 142.914 89.4086 142.913 89.4076 142.913C89.4065 142.912 89.4057 142.912 89.4051 142.911C89.4045 142.91 89.4042 142.909 89.4042 142.908H89.4067C89.4067 142.909 89.4069 142.909 89.4073 142.91C89.4077 142.91 89.4082 142.911 89.4089 142.911C89.4095 142.911 89.4102 142.911 89.411 142.911C89.4119 142.911 89.4126 142.911 89.4133 142.911C89.414 142.911 89.4145 142.91 89.4149 142.91C89.4153 142.909 89.4155 142.909 89.4155 142.908C89.4155 142.907 89.4153 142.906 89.4149 142.906C89.4145 142.905 89.414 142.905 89.4133 142.905C89.4126 142.904 89.4117 142.904 89.4107 142.904H89.4091V142.902H89.4107C89.4115 142.902 89.4122 142.902 89.4128 142.901C89.4134 142.901 89.4139 142.901 89.4142 142.9C89.4146 142.9 89.4147 142.899 89.4147 142.898C89.4147 142.898 89.4146 142.897 89.4143 142.897C89.414 142.896 89.4136 142.896 89.413 142.895C89.4125 142.895 89.4118 142.895 89.4111 142.895C89.4104 142.895 89.4097 142.895 89.4091 142.895C89.4085 142.896 89.408 142.896 89.4076 142.896C89.4072 142.897 89.407 142.898 89.407 142.898H89.4046C89.4046 142.897 89.405 142.896 89.4056 142.895C89.4062 142.895 89.4069 142.894 89.4079 142.894C89.4089 142.893 89.41 142.893 89.4111 142.893C89.4124 142.893 89.4134 142.893 89.4143 142.894C89.4152 142.894 89.4159 142.895 89.4164 142.896C89.4169 142.896 89.4171 142.897 89.4171 142.898C89.4171 142.899 89.4168 142.9 89.4162 142.901C89.4156 142.902 89.4148 142.903 89.4138 142.903V142.903C89.4151 142.903 89.4161 142.904 89.4168 142.905C89.4175 142.905 89.4179 142.907 89.4179 142.908C89.4179 142.909 89.4176 142.91 89.417 142.911C89.4164 142.912 89.4156 142.912 89.4145 142.913C89.4135 142.913 89.4123 142.914 89.411 142.914Z" fill="black"/>
<path d="M32.8344 142.893V142.913H32.8319V142.896H32.8318L32.8269 142.899V142.896L32.8319 142.893H32.8344Z" fill="black"/>
<path d="M89.1243 120.873V120.871H89.1395V120.873H89.1331V120.891H89.1307V120.873H89.1243Z" fill="black"/>
<path d="M121.367 163.536C128.749 163.536 134.732 157.552 134.732 150.171C134.732 142.79 128.749 136.806 121.367 136.806C113.986 136.806 108.002 142.79 108.002 150.171C108.002 157.552 113.986 163.536 121.367 163.536Z" fill="white"/>
<path d="M117.533 142.943V142.941L117.542 142.927H117.543V142.93H117.543L117.536 142.94V142.94H117.548V142.943H117.533ZM117.543 142.947V142.942V142.941V142.927H117.545V142.947H117.543Z" fill="black"/>
<path d="M60.2308 142.947V142.945L60.2375 142.938C60.2382 142.937 60.2389 142.936 60.2394 142.935C60.2399 142.935 60.2403 142.934 60.2405 142.934C60.2408 142.933 60.2409 142.933 60.2409 142.932C60.2409 142.931 60.2407 142.931 60.2404 142.93C60.24 142.93 60.2396 142.929 60.239 142.929C60.2384 142.929 60.2378 142.928 60.237 142.928C60.2362 142.928 60.2356 142.929 60.235 142.929C60.2344 142.929 60.234 142.93 60.2337 142.93C60.2334 142.931 60.2332 142.931 60.2332 142.932H60.2309C60.2309 142.931 60.2311 142.93 60.2317 142.929C60.2322 142.928 60.233 142.928 60.2339 142.927C60.2349 142.927 60.2359 142.926 60.2371 142.926C60.2383 142.926 60.2393 142.927 60.2402 142.927C60.2412 142.928 60.2419 142.928 60.2424 142.929C60.2429 142.93 60.2432 142.931 60.2432 142.932C60.2432 142.933 60.243 142.933 60.2428 142.934C60.2425 142.935 60.2421 142.936 60.2414 142.936C60.2407 142.937 60.2398 142.938 60.2387 142.94L60.2341 142.944V142.945H60.2435V142.947H60.2308Z" fill="black"/>
<path d="M115.165 120.891L115.159 120.871H115.162L115.166 120.888H115.166L115.17 120.871H115.173L115.178 120.888H115.178L115.182 120.871H115.184L115.179 120.891H115.176L115.172 120.875H115.172L115.167 120.891H115.165Z" fill="black"/>
<path d="M150.407 163.536C157.788 163.536 163.772 157.552 163.772 150.171C163.772 142.79 157.788 136.806 150.407 136.806C143.026 136.806 137.042 142.79 137.042 150.171C137.042 157.552 143.026 163.536 150.407 163.536Z" fill="white"/>
<path d="M147.349 142.914C147.348 142.914 147.347 142.913 147.346 142.913C147.345 142.912 147.345 142.912 147.344 142.911C147.344 142.91 147.343 142.909 147.343 142.908H147.346C147.346 142.909 147.346 142.91 147.347 142.911C147.348 142.911 147.348 142.911 147.349 142.911C147.35 142.911 147.351 142.911 147.352 142.911C147.352 142.91 147.353 142.91 147.353 142.909C147.354 142.909 147.354 142.908 147.354 142.907C147.354 142.906 147.354 142.905 147.353 142.905C147.353 142.904 147.352 142.903 147.352 142.903C147.351 142.903 147.35 142.902 147.349 142.902C147.349 142.902 147.348 142.902 147.347 142.903C147.347 142.903 147.346 142.903 147.346 142.903L147.343 142.903L147.345 142.893H147.355V142.895H147.347L147.346 142.901H147.346C147.347 142.901 147.347 142.901 147.348 142.9C147.348 142.9 147.349 142.9 147.35 142.9C147.351 142.9 147.352 142.9 147.353 142.901C147.354 142.902 147.355 142.902 147.355 142.903C147.356 142.904 147.356 142.906 147.356 142.907C147.356 142.908 147.356 142.909 147.355 142.91C147.355 142.911 147.354 142.912 147.353 142.913C147.352 142.913 147.351 142.914 147.349 142.914Z" fill="black"/>
<path d="M147.203 120.873V120.871H147.218V120.873H147.212V120.891H147.209V120.873H147.203Z" fill="black"/>
<path d="M179.446 163.536C186.827 163.536 192.811 157.552 192.811 150.171C192.811 142.79 186.827 136.806 179.446 136.806C172.065 136.806 166.081 142.79 166.081 150.171C166.081 157.552 172.065 163.536 179.446 163.536Z" fill="white"/>
<path d="M175.937 142.914C175.937 142.914 175.936 142.913 175.935 142.913C175.934 142.913 175.933 142.912 175.933 142.912C175.932 142.911 175.931 142.91 175.931 142.909C175.931 142.907 175.93 142.906 175.93 142.904C175.93 142.902 175.931 142.901 175.931 142.899C175.931 142.898 175.932 142.897 175.932 142.896C175.933 142.895 175.934 142.894 175.935 142.894C175.936 142.893 175.937 142.893 175.938 142.893C175.939 142.893 175.94 142.893 175.941 142.894C175.942 142.894 175.942 142.895 175.943 142.895C175.943 142.896 175.944 142.897 175.944 142.898H175.942C175.941 142.897 175.941 142.897 175.94 142.896C175.94 142.895 175.939 142.895 175.938 142.895C175.936 142.895 175.935 142.896 175.934 142.897C175.933 142.898 175.933 142.9 175.933 142.903H175.933C175.933 142.902 175.934 142.902 175.934 142.901C175.935 142.901 175.935 142.901 175.936 142.9C175.936 142.9 175.937 142.9 175.938 142.9C175.939 142.9 175.94 142.9 175.941 142.901C175.942 142.902 175.943 142.902 175.943 142.903C175.944 142.904 175.944 142.906 175.944 142.907C175.944 142.908 175.944 142.909 175.943 142.91C175.943 142.911 175.942 142.912 175.941 142.913C175.94 142.913 175.939 142.914 175.937 142.914ZM175.937 142.911C175.938 142.911 175.939 142.911 175.94 142.911C175.94 142.91 175.941 142.91 175.941 142.909C175.942 142.908 175.942 142.908 175.942 142.907C175.942 142.906 175.942 142.905 175.941 142.905C175.941 142.904 175.94 142.903 175.94 142.903C175.939 142.902 175.938 142.902 175.937 142.902C175.937 142.902 175.936 142.902 175.936 142.903C175.935 142.903 175.935 142.903 175.934 142.904C175.934 142.904 175.934 142.905 175.933 142.905C175.933 142.906 175.933 142.906 175.933 142.907C175.933 142.908 175.933 142.908 175.934 142.909C175.934 142.91 175.934 142.91 175.935 142.911C175.936 142.911 175.937 142.911 175.937 142.911Z" fill="black"/>
<path d="M175.496 120.891V120.871H175.508V120.873H175.498V120.88H175.507V120.882H175.498V120.891H175.496Z" fill="black"/>
<path d="M208.485 163.536C215.866 163.536 221.85 157.552 221.85 150.171C221.85 142.79 215.866 136.806 208.485 136.806C201.104 136.806 195.12 142.79 195.12 150.171C195.12 157.552 201.104 163.536 208.485 163.536Z" fill="white"/>
<path d="M205.261 142.913L205.27 142.895V142.895H205.26V142.893H205.273V142.895L205.264 142.913H205.261Z" fill="black"/>
<path d="M205.066 120.876C205.066 120.875 205.065 120.874 205.064 120.874C205.063 120.873 205.062 120.873 205.061 120.873C205.06 120.873 205.059 120.873 205.059 120.873C205.058 120.874 205.058 120.874 205.057 120.875C205.057 120.875 205.057 120.876 205.057 120.876C205.057 120.877 205.057 120.877 205.057 120.878C205.057 120.878 205.058 120.878 205.058 120.879C205.058 120.879 205.059 120.879 205.059 120.879C205.06 120.88 205.06 120.88 205.061 120.88L205.063 120.88C205.063 120.88 205.064 120.881 205.064 120.881C205.065 120.881 205.066 120.881 205.066 120.882C205.067 120.882 205.067 120.883 205.068 120.883C205.068 120.884 205.068 120.885 205.068 120.886C205.068 120.887 205.068 120.888 205.067 120.889C205.067 120.89 205.066 120.89 205.065 120.891C205.064 120.891 205.063 120.892 205.061 120.892C205.06 120.892 205.058 120.891 205.057 120.891C205.056 120.891 205.055 120.89 205.055 120.889C205.054 120.888 205.054 120.887 205.054 120.886H205.056C205.056 120.887 205.057 120.888 205.057 120.888C205.057 120.889 205.058 120.889 205.059 120.889C205.059 120.889 205.06 120.89 205.061 120.89C205.062 120.89 205.063 120.889 205.063 120.889C205.064 120.889 205.065 120.888 205.065 120.888C205.066 120.887 205.066 120.887 205.066 120.886C205.066 120.885 205.066 120.885 205.065 120.884C205.065 120.884 205.064 120.883 205.064 120.883C205.063 120.883 205.063 120.883 205.062 120.882L205.059 120.882C205.058 120.881 205.057 120.881 205.056 120.88C205.055 120.879 205.054 120.878 205.054 120.877C205.054 120.875 205.055 120.874 205.055 120.874C205.056 120.873 205.057 120.872 205.058 120.872C205.059 120.871 205.06 120.871 205.061 120.871C205.062 120.871 205.064 120.871 205.065 120.872C205.066 120.872 205.066 120.873 205.067 120.873C205.068 120.874 205.068 120.875 205.068 120.876H205.066Z" fill="black"/>
<path d="M34.2489 193.402C41.6302 193.402 47.6138 187.418 47.6138 180.037C47.6138 172.656 41.6302 166.672 34.2489 166.672C26.8677 166.672 20.884 172.656 20.884 180.037C20.884 187.418 26.8677 193.402 34.2489 193.402Z" fill="white"/>
<path d="M30.6954 172.778C30.694 172.778 30.6928 172.778 30.6918 172.777C30.6907 172.777 30.6899 172.776 30.6894 172.775C30.6888 172.775 30.6885 172.774 30.6885 172.772C30.6885 172.772 30.6887 172.771 30.689 172.77C30.6893 172.769 30.6898 172.769 30.6904 172.768C30.691 172.768 30.6917 172.767 30.6924 172.767V172.767C30.6914 172.767 30.6907 172.766 30.6901 172.766C30.6895 172.765 30.6892 172.764 30.6892 172.763C30.6892 172.762 30.6895 172.761 30.69 172.76C30.6905 172.759 30.6913 172.759 30.6922 172.758C30.6931 172.758 30.6942 172.757 30.6954 172.757C30.6965 172.757 30.6976 172.758 30.6985 172.758C30.6994 172.759 30.7001 172.759 30.7007 172.76C30.7012 172.761 30.7015 172.762 30.7015 172.763C30.7015 172.764 30.7012 172.765 30.7006 172.766C30.7 172.766 30.6993 172.767 30.6983 172.767V172.767C30.699 172.767 30.6997 172.768 30.7003 172.768C30.7009 172.769 30.7013 172.769 30.7017 172.77C30.702 172.771 30.7022 172.772 30.7022 172.772C30.7022 172.774 30.7019 172.775 30.7013 172.775C30.7008 172.776 30.7 172.777 30.6989 172.777C30.6979 172.778 30.6967 172.778 30.6954 172.778ZM30.6954 172.776C30.6963 172.776 30.6971 172.776 30.6977 172.775C30.6984 172.775 30.6989 172.775 30.6993 172.774C30.6996 172.774 30.6998 172.773 30.6998 172.772C30.6998 172.772 30.6996 172.771 30.6992 172.77C30.6988 172.77 30.6983 172.769 30.6976 172.769C30.697 172.769 30.6962 172.768 30.6954 172.768C30.6945 172.768 30.6937 172.769 30.6931 172.769C30.6924 172.769 30.6919 172.77 30.6915 172.77C30.6911 172.771 30.6909 172.772 30.6909 172.772C30.6909 172.773 30.6911 172.774 30.6914 172.774C30.6918 172.775 30.6923 172.775 30.693 172.775C30.6936 172.776 30.6944 172.776 30.6954 172.776ZM30.6954 172.766C30.6961 172.766 30.6967 172.766 30.6973 172.766C30.6978 172.766 30.6983 172.765 30.6986 172.765C30.6989 172.764 30.6991 172.764 30.6991 172.763C30.6991 172.762 30.6989 172.762 30.6986 172.761C30.6983 172.761 30.6979 172.76 30.6973 172.76C30.6968 172.76 30.6961 172.759 30.6954 172.759C30.6946 172.759 30.6939 172.76 30.6934 172.76C30.6928 172.76 30.6924 172.761 30.6921 172.761C30.6918 172.762 30.6916 172.762 30.6916 172.763C30.6916 172.764 30.6918 172.764 30.6921 172.765C30.6924 172.765 30.6928 172.766 30.6934 172.766C30.694 172.766 30.6946 172.766 30.6954 172.766Z" fill="black"/>
<path d="M63.2883 193.402C70.6696 193.402 76.6532 187.418 76.6532 180.037C76.6532 172.656 70.6696 166.672 63.2883 166.672C55.9071 166.672 49.9234 172.656 49.9234 180.037C49.9234 187.418 55.9071 193.402 63.2883 193.402Z" fill="white"/>
<path d="M60.0139 172.757C60.0147 172.757 60.0155 172.758 60.0163 172.758C60.0172 172.758 60.0179 172.759 60.0186 172.759C60.0193 172.76 60.0199 172.761 60.0203 172.762C60.0207 172.764 60.0209 172.765 60.0209 172.767C60.0209 172.769 60.0207 172.77 60.0204 172.772C60.02 172.773 60.0196 172.774 60.0189 172.775C60.0183 172.776 60.0175 172.777 60.0166 172.777C60.0157 172.778 60.0147 172.778 60.0135 172.778C60.0124 172.778 60.0114 172.778 60.0105 172.777C60.0096 172.777 60.0089 172.776 60.0083 172.776C60.0078 172.775 60.0074 172.774 60.0073 172.773H60.0097C60.0099 172.774 60.0103 172.774 60.011 172.775C60.0116 172.776 60.0125 172.776 60.0135 172.776C60.0151 172.776 60.0163 172.775 60.0172 172.774C60.0181 172.773 60.0186 172.771 60.0186 172.768H60.0184C60.0181 172.769 60.0176 172.769 60.0171 172.77C60.0166 172.77 60.0161 172.77 60.0154 172.77C60.0148 172.771 60.0142 172.771 60.0135 172.771C60.0123 172.771 60.0112 172.771 60.0103 172.77C60.0093 172.769 60.0086 172.769 60.008 172.768C60.0074 172.767 60.0071 172.765 60.0071 172.764C60.0071 172.763 60.0074 172.762 60.0079 172.761C60.0085 172.76 60.0093 172.759 60.0103 172.758C60.0113 172.758 60.0125 172.757 60.0139 172.757ZM60.0139 172.76C60.013 172.76 60.0123 172.76 60.0116 172.76C60.011 172.761 60.0104 172.761 60.0101 172.762C60.0097 172.762 60.0095 172.763 60.0095 172.764C60.0095 172.765 60.0097 172.766 60.01 172.766C60.0104 172.767 60.0109 172.768 60.0116 172.768C60.0122 172.768 60.013 172.769 60.0138 172.769C60.0144 172.769 60.015 172.769 60.0155 172.768C60.0161 172.768 60.0165 172.768 60.0169 172.767C60.0173 172.767 60.0177 172.766 60.0179 172.766C60.0181 172.765 60.0182 172.765 60.0182 172.764C60.0182 172.763 60.0181 172.763 60.0177 172.762C60.0173 172.761 60.0168 172.761 60.0161 172.76C60.0155 172.76 60.0147 172.76 60.0139 172.76Z" fill="black"/>
<path d="M92.3279 193.402C99.7091 193.402 105.693 187.418 105.693 180.037C105.693 172.656 99.7091 166.672 92.3279 166.672C84.9466 166.672 78.963 172.656 78.963 180.037C78.963 187.418 84.9466 193.402 92.3279 193.402Z" fill="white"/>
<path d="M86.8598 172.758V172.778H86.8574V172.76H86.8573L86.8523 172.763V172.761L86.8574 172.758H86.8598ZM86.8722 172.778C86.8707 172.778 86.8695 172.778 86.8684 172.777C86.8674 172.776 86.8666 172.775 86.866 172.773C86.8655 172.772 86.8652 172.77 86.8652 172.768C86.8652 172.766 86.8655 172.764 86.866 172.762C86.8666 172.761 86.8674 172.759 86.8684 172.759C86.8695 172.758 86.8707 172.757 86.8722 172.757C86.8737 172.757 86.8749 172.758 86.876 172.759C86.877 172.759 86.8778 172.761 86.8784 172.762C86.879 172.764 86.8792 172.766 86.8792 172.768C86.8792 172.77 86.879 172.772 86.8784 172.773C86.8779 172.775 86.8771 172.776 86.876 172.777C86.875 172.778 86.8737 172.778 86.8722 172.778ZM86.8722 172.776C86.8737 172.776 86.8748 172.775 86.8756 172.774C86.8765 172.772 86.8769 172.77 86.8769 172.768C86.8769 172.766 86.8767 172.764 86.8763 172.763C86.8759 172.762 86.8754 172.761 86.8747 172.76C86.874 172.76 86.8732 172.759 86.8722 172.759C86.8708 172.759 86.8696 172.76 86.8688 172.762C86.868 172.763 86.8676 172.765 86.8676 172.768C86.8676 172.769 86.8677 172.771 86.8681 172.772C86.8685 172.773 86.869 172.774 86.8697 172.775C86.8704 172.776 86.8712 172.776 86.8722 172.776Z" fill="black"/>
<path d="M121.367 193.402C128.749 193.402 134.732 187.418 134.732 180.037C134.732 172.656 128.749 166.672 121.367 166.672C113.986 166.672 108.002 172.656 108.002 180.037C108.002 187.418 113.986 193.402 121.367 193.402Z" fill="white"/>
<path d="M117.937 172.758V172.778H117.935V172.76H117.935L117.93 172.763V172.761L117.935 172.758H117.937ZM117.95 172.758V172.778H117.948V172.76H117.947L117.943 172.763V172.761L117.948 172.758H117.95Z" fill="black"/>
<path d="M150.407 193.402C157.788 193.402 163.772 187.418 163.772 180.037C163.772 172.656 157.788 166.672 150.407 166.672C143.026 166.672 137.042 172.656 137.042 180.037C137.042 187.418 143.026 193.402 150.407 193.402Z" fill="white"/>
<path d="M145.391 172.758V172.778H145.389V172.76H145.389L145.384 172.763V172.761L145.389 172.758H145.391ZM145.397 172.778V172.776L145.404 172.769C145.404 172.768 145.405 172.767 145.406 172.767C145.406 172.766 145.406 172.765 145.407 172.765C145.407 172.764 145.407 172.764 145.407 172.763C145.407 172.762 145.407 172.762 145.407 172.761C145.406 172.761 145.406 172.76 145.405 172.76C145.405 172.76 145.404 172.759 145.403 172.759C145.402 172.759 145.402 172.76 145.401 172.76C145.401 172.76 145.4 172.761 145.4 172.761C145.4 172.762 145.399 172.763 145.399 172.763H145.397C145.397 172.762 145.397 172.761 145.398 172.76C145.398 172.759 145.399 172.759 145.4 172.758C145.401 172.758 145.402 172.757 145.403 172.757C145.404 172.757 145.406 172.758 145.406 172.758C145.407 172.759 145.408 172.759 145.409 172.76C145.409 172.761 145.409 172.762 145.409 172.763C145.409 172.764 145.409 172.764 145.409 172.765C145.409 172.766 145.408 172.767 145.408 172.767C145.407 172.768 145.406 172.769 145.405 172.771L145.4 172.776V172.776H145.41V172.778H145.397Z" fill="black"/>
<path d="M179.446 193.402C186.827 193.402 192.811 187.418 192.811 180.037C192.811 172.656 186.827 166.672 179.446 166.672C172.065 166.672 166.081 172.656 166.081 180.037C166.081 187.418 172.065 193.402 179.446 193.402Z" fill="white"/>
<path d="M174.515 172.758V172.778H174.512V172.76H174.512L174.507 172.763V172.761L174.512 172.758H174.515ZM174.527 172.778C174.526 172.778 174.525 172.778 174.524 172.777C174.523 172.777 174.522 172.776 174.521 172.776C174.521 172.775 174.521 172.774 174.521 172.773H174.523C174.523 172.773 174.523 172.774 174.524 172.774C174.524 172.775 174.525 172.775 174.525 172.776C174.526 172.776 174.527 172.776 174.527 172.776C174.528 172.776 174.529 172.776 174.53 172.775C174.53 172.775 174.531 172.775 174.531 172.774C174.532 172.774 174.532 172.773 174.532 172.772C174.532 172.772 174.532 172.771 174.531 172.77C174.531 172.77 174.53 172.769 174.53 172.769C174.529 172.769 174.528 172.769 174.527 172.769H174.525V172.766H174.527C174.528 172.766 174.529 172.766 174.529 172.766C174.53 172.766 174.53 172.765 174.531 172.765C174.531 172.764 174.531 172.764 174.531 172.763C174.531 172.762 174.531 172.762 174.531 172.761C174.53 172.761 174.53 172.76 174.529 172.76C174.529 172.76 174.528 172.759 174.527 172.759C174.527 172.759 174.526 172.76 174.525 172.76C174.525 172.76 174.524 172.76 174.524 172.761C174.524 172.761 174.523 172.762 174.523 172.763H174.521C174.521 172.762 174.521 172.761 174.522 172.76C174.522 172.759 174.523 172.758 174.524 172.758C174.525 172.758 174.526 172.757 174.527 172.757C174.529 172.757 174.53 172.758 174.531 172.758C174.532 172.759 174.532 172.759 174.533 172.76C174.533 172.761 174.533 172.762 174.533 172.763C174.533 172.764 174.533 172.765 174.533 172.766C174.532 172.766 174.531 172.767 174.53 172.767V172.767C174.531 172.768 174.532 172.768 174.533 172.769C174.534 172.77 174.534 172.771 174.534 172.772C174.534 172.773 174.534 172.774 174.533 172.775C174.533 172.776 174.532 172.777 174.531 172.777C174.53 172.778 174.529 172.778 174.527 172.778Z" fill="black"/>
<path d="M208.485 193.402C215.866 193.402 221.85 187.418 221.85 180.037C221.85 172.656 215.866 166.672 208.485 166.672C201.104 166.672 195.12 172.656 195.12 180.037C195.12 187.418 201.104 193.402 208.485 193.402Z" fill="white"/>
<path d="M202.817 172.758V172.778H202.814V172.76H202.814L202.809 172.763V172.761L202.814 172.758H202.817ZM202.822 172.774V172.772L202.831 172.758H202.833V172.761H202.832L202.825 172.771V172.772H202.837V172.774H202.822ZM202.832 172.778V172.773V172.772V172.758H202.834V172.778H202.832Z" fill="black"/>
<path d="M34.2489 223.265C41.6302 223.265 47.6138 217.282 47.6138 209.901C47.6138 202.519 41.6302 196.536 34.2489 196.536C26.8677 196.536 20.884 202.519 20.884 209.901C20.884 217.282 26.8677 223.265 34.2489 223.265Z" fill="white"/>
<path d="M29.2499 202.622V202.643H29.2474V202.625H29.2473L29.2424 202.628V202.626L29.2474 202.622H29.2499ZM29.262 202.643C29.2608 202.643 29.2598 202.643 29.2589 202.642C29.2579 202.642 29.2572 202.641 29.2566 202.64C29.2561 202.639 29.2558 202.639 29.2557 202.638H29.2581C29.2582 202.638 29.2586 202.639 29.2593 202.64C29.2601 202.64 29.261 202.641 29.262 202.641C29.2628 202.641 29.2636 202.64 29.2642 202.64C29.2649 202.64 29.2654 202.639 29.2657 202.639C29.2661 202.638 29.2663 202.637 29.2663 202.636C29.2663 202.635 29.2661 202.635 29.2657 202.634C29.2653 202.633 29.2648 202.633 29.2641 202.632C29.2635 202.632 29.2627 202.632 29.2618 202.632C29.2612 202.632 29.2606 202.632 29.2599 202.632C29.2593 202.632 29.2587 202.632 29.2583 202.633L29.256 202.632L29.2573 202.622H29.2678V202.625H29.2593L29.2586 202.631H29.2587C29.2591 202.63 29.2597 202.63 29.2603 202.63C29.2609 202.629 29.2616 202.629 29.2622 202.629C29.2635 202.629 29.2646 202.63 29.2655 202.63C29.2665 202.631 29.2673 202.632 29.2678 202.633C29.2684 202.634 29.2687 202.635 29.2687 202.636C29.2687 202.637 29.2684 202.639 29.2678 202.64C29.2672 202.641 29.2664 202.641 29.2654 202.642C29.2644 202.643 29.2633 202.643 29.262 202.643Z" fill="black"/>
<path d="M63.2883 223.265C70.6696 223.265 76.6532 217.282 76.6532 209.901C76.6532 202.519 70.6696 196.536 63.2883 196.536C55.9071 196.536 49.9234 202.519 49.9234 209.901C49.9234 217.282 55.9071 223.265 63.2883 223.265Z" fill="#FFBC66"/>
<path d="M58.0045 202.622V202.643H58.0021V202.625H58.002L57.997 202.628V202.626L58.0021 202.622H58.0045ZM58.017 202.643C58.0162 202.643 58.0154 202.643 58.0146 202.642C58.0137 202.642 58.013 202.642 58.0123 202.641C58.0116 202.64 58.0111 202.639 58.0106 202.638C58.0102 202.637 58.01 202.635 58.01 202.633C58.01 202.631 58.0102 202.63 58.0105 202.629C58.0109 202.627 58.0113 202.626 58.012 202.625C58.0126 202.624 58.0134 202.623 58.0143 202.623C58.0152 202.622 58.0162 202.622 58.0174 202.622C58.0185 202.622 58.0195 202.622 58.0204 202.623C58.0213 202.623 58.022 202.624 58.0225 202.625C58.0231 202.625 58.0235 202.626 58.0236 202.627H58.0212C58.021 202.627 58.0206 202.626 58.0199 202.625C58.0193 202.625 58.0184 202.624 58.0174 202.624C58.0158 202.624 58.0146 202.625 58.0137 202.626C58.0128 202.628 58.0123 202.63 58.0123 202.632H58.0125C58.0128 202.631 58.0133 202.631 58.0138 202.631C58.0143 202.63 58.0149 202.63 58.0155 202.63C58.0161 202.629 58.0167 202.629 58.0174 202.629C58.0186 202.629 58.0197 202.63 58.0206 202.63C58.0216 202.631 58.0223 202.632 58.0229 202.633C58.0235 202.634 58.0238 202.635 58.0238 202.636C58.0238 202.637 58.0235 202.638 58.023 202.64C58.0224 202.641 58.0216 202.641 58.0206 202.642C58.0196 202.643 58.0184 202.643 58.017 202.643ZM58.017 202.641C58.0179 202.641 58.0186 202.64 58.0193 202.64C58.0199 202.64 58.0205 202.639 58.0208 202.638C58.0212 202.638 58.0214 202.637 58.0214 202.636C58.0214 202.635 58.0212 202.634 58.0209 202.634C58.0205 202.633 58.02 202.633 58.0193 202.632C58.0187 202.632 58.0179 202.632 58.0171 202.632C58.0165 202.632 58.0159 202.632 58.0154 202.632C58.0148 202.632 58.0144 202.632 58.014 202.633C58.0136 202.633 58.0132 202.634 58.013 202.634C58.0128 202.635 58.0127 202.636 58.0127 202.636C58.0127 202.637 58.0128 202.638 58.0132 202.638C58.0136 202.639 58.0141 202.64 58.0148 202.64C58.0154 202.64 58.0162 202.641 58.017 202.641Z" fill="black"/>
<path d="M92.3279 223.265C99.7091 223.265 105.693 217.282 105.693 209.901C105.693 202.519 99.7091 196.536 92.3279 196.536C84.9466 196.536 78.963 202.519 78.963 209.901C78.963 217.282 84.9466 223.265 92.3279 223.265Z" fill="#FFBC66"/>
<path d="M87.2227 202.622V202.643H87.2202V202.625H87.2201L87.2152 202.628V202.626L87.2202 202.622H87.2227ZM87.2291 202.643L87.2382 202.625V202.625H87.2278V202.622H87.2407V202.625L87.2317 202.643H87.2291Z" fill="black"/>
<path d="M121.367 223.265C128.749 223.265 134.732 217.282 134.732 209.901C134.732 202.519 128.749 196.536 121.367 196.536C113.986 196.536 108.002 202.519 108.002 209.901C108.002 217.282 113.986 223.265 121.367 223.265Z" fill="#FFBC66"/>
<path d="M116.016 202.622V202.643H116.014V202.625H116.014L116.009 202.628V202.626L116.014 202.622H116.016ZM116.029 202.643C116.027 202.643 116.026 202.643 116.025 202.642C116.024 202.642 116.023 202.641 116.023 202.64C116.022 202.639 116.022 202.638 116.022 202.637C116.022 202.636 116.022 202.636 116.022 202.635C116.023 202.634 116.023 202.634 116.024 202.633C116.024 202.633 116.025 202.632 116.026 202.632V202.632C116.025 202.632 116.024 202.631 116.024 202.63C116.023 202.629 116.023 202.629 116.023 202.627C116.023 202.626 116.023 202.626 116.023 202.625C116.024 202.624 116.025 202.623 116.026 202.623C116.027 202.622 116.028 202.622 116.029 202.622C116.03 202.622 116.031 202.622 116.032 202.623C116.033 202.623 116.034 202.624 116.034 202.625C116.035 202.626 116.035 202.626 116.035 202.627C116.035 202.629 116.035 202.629 116.034 202.63C116.033 202.631 116.033 202.632 116.032 202.632V202.632C116.032 202.632 116.033 202.633 116.034 202.633C116.034 202.634 116.035 202.634 116.035 202.635C116.035 202.636 116.036 202.636 116.036 202.637C116.036 202.638 116.035 202.639 116.035 202.64C116.034 202.641 116.033 202.642 116.032 202.642C116.031 202.643 116.03 202.643 116.029 202.643ZM116.029 202.641C116.03 202.641 116.03 202.641 116.031 202.64C116.032 202.64 116.032 202.64 116.033 202.639C116.033 202.638 116.033 202.638 116.033 202.637C116.033 202.636 116.033 202.636 116.033 202.635C116.032 202.634 116.032 202.634 116.031 202.634C116.03 202.633 116.03 202.633 116.029 202.633C116.028 202.633 116.027 202.633 116.026 202.634C116.026 202.634 116.025 202.634 116.025 202.635C116.024 202.636 116.024 202.636 116.024 202.637C116.024 202.638 116.024 202.638 116.025 202.639C116.025 202.64 116.026 202.64 116.026 202.64C116.027 202.641 116.028 202.641 116.029 202.641ZM116.029 202.631C116.029 202.631 116.03 202.631 116.031 202.631C116.031 202.63 116.032 202.63 116.032 202.629C116.032 202.629 116.033 202.628 116.033 202.628C116.033 202.627 116.032 202.626 116.032 202.626C116.032 202.625 116.031 202.625 116.031 202.625C116.03 202.624 116.03 202.624 116.029 202.624C116.028 202.624 116.027 202.624 116.027 202.625C116.026 202.625 116.026 202.625 116.025 202.626C116.025 202.626 116.025 202.627 116.025 202.628C116.025 202.628 116.025 202.629 116.025 202.629C116.026 202.63 116.026 202.63 116.027 202.631C116.027 202.631 116.028 202.631 116.029 202.631Z" fill="black"/>
<path d="M150.407 223.265C157.788 223.265 163.772 217.282 163.772 209.901C163.772 202.519 157.788 196.536 150.407 196.536C143.026 196.536 137.042 202.519 137.042 209.901C137.042 217.282 143.026 223.265 150.407 223.265Z" fill="#FFBC66"/>
<path d="M145.24 202.622V202.643H145.237V202.625H145.237L145.232 202.628V202.626L145.237 202.622H145.24ZM145.252 202.622C145.253 202.622 145.254 202.622 145.254 202.623C145.255 202.623 145.256 202.623 145.257 202.624C145.257 202.625 145.258 202.626 145.258 202.627C145.259 202.628 145.259 202.63 145.259 202.632C145.259 202.633 145.259 202.635 145.258 202.636C145.258 202.638 145.258 202.639 145.257 202.64C145.256 202.641 145.256 202.642 145.255 202.642C145.254 202.643 145.253 202.643 145.252 202.643C145.251 202.643 145.25 202.643 145.249 202.642C145.248 202.642 145.247 202.641 145.246 202.64C145.246 202.639 145.246 202.639 145.245 202.637H145.248C145.248 202.638 145.248 202.639 145.249 202.64C145.25 202.64 145.251 202.641 145.252 202.641C145.253 202.641 145.254 202.64 145.255 202.639C145.256 202.637 145.257 202.635 145.257 202.633H145.257C145.256 202.633 145.256 202.634 145.255 202.634C145.255 202.635 145.254 202.635 145.254 202.635C145.253 202.635 145.252 202.636 145.252 202.636C145.25 202.636 145.249 202.635 145.248 202.635C145.247 202.634 145.247 202.633 145.246 202.632C145.246 202.631 145.245 202.63 145.245 202.629C145.245 202.628 145.246 202.626 145.246 202.625C145.247 202.624 145.247 202.624 145.248 202.623C145.249 202.622 145.251 202.622 145.252 202.622ZM145.252 202.624C145.251 202.624 145.25 202.624 145.25 202.625C145.249 202.625 145.249 202.626 145.248 202.627C145.248 202.627 145.248 202.628 145.248 202.629C145.248 202.63 145.248 202.63 145.248 202.631C145.249 202.632 145.249 202.632 145.25 202.633C145.25 202.633 145.251 202.633 145.252 202.633C145.253 202.633 145.253 202.633 145.254 202.633C145.254 202.633 145.255 202.632 145.255 202.632C145.255 202.632 145.256 202.631 145.256 202.631C145.256 202.63 145.256 202.629 145.256 202.629C145.256 202.628 145.256 202.627 145.256 202.627C145.255 202.626 145.255 202.625 145.254 202.625C145.254 202.624 145.253 202.624 145.252 202.624Z" fill="black"/>
<path d="M179.446 223.265C186.827 223.265 192.811 217.282 192.811 209.901C192.811 202.519 186.827 196.536 179.446 196.536C172.065 196.536 166.081 202.519 166.081 209.901C166.081 217.282 172.065 223.265 179.446 223.265Z" fill="white"/>
<path d="M172.794 202.643C172.792 202.643 172.791 202.642 172.79 202.642C172.789 202.641 172.788 202.64 172.787 202.638C172.787 202.637 172.787 202.635 172.787 202.632C172.787 202.63 172.787 202.628 172.787 202.627C172.788 202.625 172.789 202.624 172.79 202.623C172.791 202.623 172.792 202.622 172.794 202.622C172.795 202.622 172.796 202.623 172.797 202.623C172.798 202.624 172.799 202.625 172.8 202.627C172.8 202.628 172.801 202.63 172.801 202.632C172.801 202.635 172.8 202.637 172.8 202.638C172.799 202.64 172.798 202.641 172.797 202.642C172.796 202.642 172.795 202.643 172.794 202.643ZM172.794 202.641C172.795 202.641 172.796 202.64 172.797 202.639C172.798 202.637 172.798 202.635 172.798 202.632C172.798 202.631 172.798 202.629 172.798 202.628C172.797 202.627 172.797 202.626 172.796 202.625C172.795 202.625 172.795 202.624 172.794 202.624C172.792 202.624 172.791 202.625 172.79 202.626C172.789 202.628 172.789 202.63 172.789 202.632C172.789 202.634 172.789 202.636 172.79 202.637C172.79 202.638 172.79 202.639 172.791 202.64C172.792 202.64 172.793 202.641 172.794 202.641Z" fill="black"/>
<path d="M208.485 223.265C215.866 223.265 221.85 217.282 221.85 209.901C221.85 202.519 215.866 196.536 208.485 196.536C201.104 196.536 195.12 202.519 195.12 209.901C195.12 217.282 201.104 223.265 208.485 223.265Z" fill="white"/>
<path d="M203.843 202.643V202.641L203.85 202.634C203.85 202.633 203.851 202.632 203.851 202.631C203.852 202.631 203.852 202.63 203.853 202.629C203.853 202.629 203.853 202.628 203.853 202.628C203.853 202.627 203.853 202.626 203.852 202.626C203.852 202.625 203.852 202.625 203.851 202.625C203.851 202.624 203.85 202.624 203.849 202.624C203.848 202.624 203.848 202.624 203.847 202.625C203.847 202.625 203.846 202.625 203.846 202.626C203.845 202.627 203.845 202.627 203.845 202.628H203.843C203.843 202.627 203.843 202.626 203.844 202.625C203.844 202.624 203.845 202.623 203.846 202.623C203.847 202.622 203.848 202.622 203.849 202.622C203.85 202.622 203.851 202.622 203.852 202.623C203.853 202.623 203.854 202.624 203.855 202.625C203.855 202.626 203.855 202.627 203.855 202.628C203.855 202.628 203.855 202.629 203.855 202.63C203.855 202.631 203.854 202.631 203.854 202.632C203.853 202.633 203.852 202.634 203.851 202.635L203.846 202.64V202.64H203.856V202.643H203.843ZM203.867 202.622V202.643H203.864V202.625H203.864L203.859 202.628V202.626L203.864 202.622H203.867Z" fill="black"/>
<path d="M34.2489 253.131C41.6302 253.131 47.6138 247.147 47.6138 239.766C47.6138 232.385 41.6302 226.401 34.2489 226.401C26.8677 226.401 20.884 232.385 20.884 239.766C20.884 247.147 26.8677 253.131 34.2489 253.131Z" fill="white"/>
<path d="M28.02 232.507V232.505L28.0267 232.498C28.0275 232.497 28.0281 232.496 28.0286 232.496C28.0291 232.495 28.0295 232.494 28.0297 232.494C28.03 232.493 28.0301 232.493 28.0301 232.492C28.0301 232.491 28.03 232.491 28.0296 232.49C28.0293 232.49 28.0288 232.489 28.0282 232.489C28.0276 232.489 28.027 232.488 28.0263 232.488C28.0255 232.488 28.0248 232.489 28.0242 232.489C28.0237 232.489 28.0232 232.49 28.0229 232.49C28.0226 232.491 28.0224 232.492 28.0224 232.492H28.0201C28.0201 232.491 28.0204 232.49 28.0209 232.489C28.0215 232.488 28.0222 232.488 28.0231 232.487C28.0241 232.487 28.0252 232.486 28.0263 232.486C28.0275 232.486 28.0286 232.487 28.0295 232.487C28.0304 232.488 28.0311 232.488 28.0316 232.489C28.0322 232.49 28.0324 232.491 28.0324 232.492C28.0324 232.493 28.0323 232.493 28.032 232.494C28.0317 232.495 28.0313 232.496 28.0306 232.496C28.03 232.497 28.0291 232.498 28.0279 232.5L28.0234 232.505V232.505H28.0328V232.507H28.02ZM28.0368 232.507V232.505L28.0435 232.498C28.0443 232.497 28.0449 232.496 28.0454 232.496C28.0459 232.495 28.0463 232.494 28.0466 232.494C28.0468 232.493 28.0469 232.493 28.0469 232.492C28.0469 232.491 28.0468 232.491 28.0464 232.49C28.0461 232.49 28.0456 232.489 28.045 232.489C28.0445 232.489 28.0438 232.488 28.0431 232.488C28.0423 232.488 28.0416 232.489 28.041 232.489C28.0405 232.489 28.04 232.49 28.0397 232.49C28.0394 232.491 28.0392 232.492 28.0392 232.492H28.0369C28.0369 232.491 28.0372 232.49 28.0377 232.489C28.0383 232.488 28.039 232.488 28.04 232.487C28.0409 232.487 28.042 232.486 28.0432 232.486C28.0443 232.486 28.0454 232.487 28.0463 232.487C28.0472 232.488 28.0479 232.488 28.0484 232.489C28.049 232.49 28.0492 232.491 28.0492 232.492C28.0492 232.493 28.0491 232.493 28.0488 232.494C28.0486 232.495 28.0481 232.496 28.0474 232.496C28.0468 232.497 28.0459 232.498 28.0447 232.5L28.0402 232.505V232.505H28.0496V232.507H28.0368Z" fill="black"/>
<path d="M63.2883 253.131C70.6696 253.131 76.6532 247.147 76.6532 239.766C76.6532 232.385 70.6696 226.401 63.2883 226.401C55.9071 226.401 49.9234 232.385 49.9234 239.766C49.9234 247.147 55.9071 253.131 63.2883 253.131Z" fill="white"/>
<path d="M57.1432 232.507V232.505L57.1498 232.498C57.1506 232.497 57.1513 232.496 57.1518 232.496C57.1523 232.495 57.1527 232.494 57.1529 232.494C57.1532 232.493 57.1533 232.493 57.1533 232.492C57.1533 232.491 57.1531 232.491 57.1528 232.49C57.1524 232.49 57.152 232.489 57.1514 232.489C57.1508 232.489 57.1501 232.488 57.1494 232.488C57.1486 232.488 57.148 232.489 57.1474 232.489C57.1468 232.489 57.1464 232.49 57.146 232.49C57.1457 232.491 57.1456 232.492 57.1456 232.492H57.1433C57.1433 232.491 57.1435 232.49 57.1441 232.489C57.1446 232.488 57.1454 232.488 57.1463 232.487C57.1472 232.487 57.1483 232.486 57.1495 232.486C57.1507 232.486 57.1517 232.487 57.1526 232.487C57.1535 232.488 57.1543 232.488 57.1548 232.489C57.1553 232.49 57.1556 232.491 57.1556 232.492C57.1556 232.493 57.1554 232.493 57.1552 232.494C57.1549 232.495 57.1544 232.496 57.1538 232.496C57.1531 232.497 57.1522 232.498 57.1511 232.5L57.1465 232.505V232.505H57.1559V232.507H57.1432ZM57.1668 232.507C57.1655 232.507 57.1644 232.507 57.1633 232.506C57.1623 232.506 57.1615 232.505 57.1609 232.505C57.1603 232.504 57.16 232.503 57.16 232.502H57.1624C57.1625 232.502 57.1627 232.503 57.1631 232.503C57.1635 232.504 57.164 232.504 57.1647 232.505C57.1653 232.505 57.166 232.505 57.1668 232.505C57.1676 232.505 57.1684 232.505 57.1691 232.504C57.1698 232.504 57.1703 232.504 57.1707 232.503C57.171 232.503 57.1712 232.502 57.1712 232.501C57.1712 232.501 57.1711 232.5 57.1707 232.499C57.1703 232.499 57.1698 232.498 57.1691 232.498C57.1684 232.498 57.1675 232.498 57.1665 232.498H57.1648V232.495H57.1665C57.1673 232.495 57.168 232.495 57.1686 232.495C57.1692 232.495 57.1697 232.494 57.17 232.494C57.1704 232.493 57.1705 232.493 57.1705 232.492C57.1705 232.491 57.1704 232.491 57.1701 232.49C57.1698 232.49 57.1693 232.489 57.1688 232.489C57.1682 232.489 57.1676 232.488 57.1669 232.488C57.1662 232.488 57.1655 232.489 57.1649 232.489C57.1643 232.489 57.1638 232.489 57.1634 232.49C57.163 232.49 57.1628 232.491 57.1628 232.492H57.1604C57.1604 232.491 57.1607 232.49 57.1613 232.489C57.1619 232.488 57.1627 232.487 57.1637 232.487C57.1647 232.487 57.1657 232.486 57.1669 232.486C57.1681 232.486 57.1692 232.487 57.1701 232.487C57.171 232.488 57.1717 232.488 57.1722 232.489C57.1727 232.49 57.1729 232.491 57.1729 232.492C57.1729 232.493 57.1726 232.494 57.172 232.495C57.1714 232.495 57.1706 232.496 57.1696 232.496V232.496C57.1709 232.497 57.1719 232.497 57.1726 232.498C57.1733 232.499 57.1736 232.5 57.1736 232.501C57.1736 232.502 57.1733 232.503 57.1727 232.504C57.1722 232.505 57.1713 232.506 57.1703 232.506C57.1693 232.507 57.1681 232.507 57.1668 232.507Z" fill="black"/>
<path d="M92.3279 253.131C99.7091 253.131 105.693 247.147 105.693 239.766C105.693 232.385 99.7091 226.401 92.3279 226.401C84.9466 226.401 78.963 232.385 78.963 239.766C78.963 247.147 84.9466 253.131 92.3279 253.131Z" fill="white"/>
<path d="M85.5736 232.503V232.501L85.5825 232.487H85.584V232.49H85.583L85.5763 232.5V232.501H85.5882V232.503H85.5736ZM85.5831 232.507V232.502V232.501V232.487H85.5855V232.507H85.5831Z" fill="black"/>
<path d="M121.367 253.131C128.749 253.131 134.732 247.147 134.732 239.766C134.732 232.385 128.749 226.401 121.367 226.401C113.986 226.401 108.002 232.385 108.002 239.766C108.002 247.147 113.986 253.131 121.367 253.131Z" fill="white"/>
<path d="M115.155 232.507V232.505L115.162 232.498C115.163 232.497 115.163 232.496 115.164 232.496C115.164 232.495 115.165 232.494 115.165 232.494C115.165 232.493 115.165 232.493 115.165 232.492C115.165 232.491 115.165 232.491 115.165 232.49C115.164 232.49 115.164 232.489 115.163 232.489C115.163 232.489 115.162 232.488 115.161 232.488C115.161 232.488 115.16 232.489 115.159 232.489C115.159 232.489 115.158 232.49 115.158 232.49C115.158 232.491 115.158 232.492 115.158 232.492H115.155C115.155 232.491 115.155 232.49 115.156 232.489C115.157 232.488 115.157 232.488 115.158 232.487C115.159 232.487 115.16 232.486 115.161 232.486C115.163 232.486 115.164 232.487 115.165 232.487C115.165 232.488 115.166 232.488 115.167 232.489C115.167 232.49 115.168 232.491 115.168 232.492C115.168 232.493 115.167 232.493 115.167 232.494C115.167 232.495 115.166 232.496 115.166 232.496C115.165 232.497 115.164 232.498 115.163 232.5L115.158 232.505V232.505H115.168V232.507H115.155ZM115.178 232.507C115.177 232.507 115.176 232.507 115.175 232.506C115.174 232.506 115.173 232.505 115.173 232.505C115.172 232.504 115.172 232.503 115.172 232.502H115.174C115.174 232.503 115.175 232.503 115.176 232.504C115.176 232.505 115.177 232.505 115.178 232.505C115.179 232.505 115.18 232.505 115.18 232.504C115.181 232.504 115.182 232.503 115.182 232.503C115.182 232.502 115.183 232.501 115.183 232.5C115.183 232.5 115.182 232.499 115.182 232.498C115.182 232.497 115.181 232.497 115.18 232.496C115.18 232.496 115.179 232.496 115.178 232.496C115.177 232.496 115.177 232.496 115.176 232.496C115.176 232.496 115.175 232.497 115.175 232.497L115.172 232.497L115.174 232.487H115.184V232.489H115.176L115.175 232.495H115.175C115.175 232.494 115.176 232.494 115.177 232.494C115.177 232.494 115.178 232.494 115.178 232.494C115.18 232.494 115.181 232.494 115.182 232.495C115.183 232.495 115.184 232.496 115.184 232.497C115.185 232.498 115.185 232.499 115.185 232.5C115.185 232.502 115.185 232.503 115.184 232.504C115.183 232.505 115.183 232.506 115.182 232.506C115.181 232.507 115.18 232.507 115.178 232.507Z" fill="black"/>
<path d="M150.407 253.131C157.788 253.131 163.772 247.147 163.772 239.766C163.772 232.385 157.788 226.401 150.407 226.401C143.026 226.401 137.042 232.385 137.042 239.766C137.042 247.147 143.026 253.131 150.407 253.131Z" fill="white"/>
<path d="M143.94 232.507C143.939 232.507 143.938 232.507 143.937 232.507C143.936 232.506 143.935 232.506 143.935 232.505C143.934 232.504 143.934 232.503 143.933 232.502C143.933 232.501 143.933 232.499 143.933 232.498C143.933 232.496 143.933 232.494 143.933 232.493C143.933 232.491 143.934 232.49 143.934 232.489C143.935 232.488 143.936 232.488 143.937 232.487C143.938 232.487 143.939 232.486 143.94 232.486C143.941 232.486 143.942 232.487 143.943 232.487C143.944 232.487 143.944 232.488 143.945 232.489C143.946 232.49 143.946 232.491 143.946 232.492H143.944C143.943 232.491 143.943 232.49 143.942 232.489C143.942 232.489 143.941 232.489 143.94 232.489C143.938 232.489 143.937 232.489 143.936 232.491C143.935 232.492 143.935 232.494 143.935 232.496H143.935C143.935 232.496 143.936 232.495 143.936 232.495C143.937 232.494 143.937 232.494 143.938 232.494C143.939 232.494 143.939 232.494 143.94 232.494C143.941 232.494 143.942 232.494 143.943 232.494C143.944 232.495 143.945 232.496 143.945 232.497C143.946 232.498 143.946 232.499 143.946 232.5C143.946 232.502 143.946 232.503 143.945 232.504C143.945 232.505 143.944 232.506 143.943 232.506C143.942 232.507 143.941 232.507 143.94 232.507ZM143.94 232.505C143.94 232.505 143.941 232.505 143.942 232.504C143.942 232.504 143.943 232.503 143.943 232.503C143.944 232.502 143.944 232.501 143.944 232.5C143.944 232.499 143.944 232.499 143.943 232.498C143.943 232.497 143.942 232.497 143.942 232.496C143.941 232.496 143.94 232.496 143.94 232.496C143.939 232.496 143.938 232.496 143.938 232.496C143.937 232.496 143.937 232.497 143.936 232.497C143.936 232.498 143.936 232.498 143.935 232.499C143.935 232.499 143.935 232.5 143.935 232.5C143.935 232.501 143.935 232.502 143.936 232.503C143.936 232.503 143.937 232.504 143.937 232.504C143.938 232.505 143.939 232.505 143.94 232.505Z" fill="black"/>
<path d="M179.446 253.131C186.827 253.131 192.811 247.147 192.811 239.766C192.811 232.385 186.827 226.401 179.446 226.401C172.065 226.401 166.081 232.385 166.081 239.766C166.081 247.147 172.065 253.131 179.446 253.131Z" fill="white"/>
<path d="M173.151 232.507L173.16 232.489V232.489H173.149V232.487H173.162V232.489L173.153 232.507H173.151Z" fill="black"/>
<path d="M208.485 253.131C215.866 253.131 221.85 247.147 221.85 239.766C221.85 232.385 215.866 226.401 208.485 226.401C201.104 226.401 195.12 232.385 195.12 239.766C195.12 247.147 201.104 253.131 208.485 253.131Z" fill="white"/>
<path d="M201.921 232.507V232.505L201.928 232.498C201.929 232.497 201.929 232.496 201.93 232.496C201.93 232.495 201.931 232.494 201.931 232.494C201.931 232.493 201.931 232.493 201.931 232.492C201.931 232.491 201.931 232.491 201.931 232.49C201.931 232.49 201.93 232.489 201.93 232.489C201.929 232.489 201.928 232.488 201.928 232.488C201.927 232.488 201.926 232.489 201.926 232.489C201.925 232.489 201.925 232.49 201.924 232.49C201.924 232.491 201.924 232.492 201.924 232.492H201.921C201.921 232.491 201.922 232.49 201.922 232.489C201.923 232.488 201.924 232.488 201.924 232.487C201.925 232.487 201.926 232.486 201.928 232.486C201.929 232.486 201.93 232.487 201.931 232.487C201.932 232.488 201.932 232.488 201.933 232.489C201.933 232.49 201.934 232.491 201.934 232.492C201.934 232.493 201.934 232.493 201.933 232.494C201.933 232.495 201.933 232.496 201.932 232.496C201.931 232.497 201.93 232.498 201.929 232.5L201.925 232.505V232.505H201.934V232.507H201.921ZM201.945 232.507C201.943 232.507 201.942 232.507 201.941 232.506C201.94 232.506 201.939 232.505 201.939 232.504C201.938 232.504 201.938 232.503 201.938 232.501C201.938 232.501 201.938 232.5 201.938 232.499C201.939 232.498 201.939 232.498 201.94 232.497C201.94 232.497 201.941 232.496 201.942 232.496V232.496C201.941 232.496 201.94 232.495 201.939 232.495C201.939 232.494 201.939 232.493 201.939 232.492C201.939 232.491 201.939 232.49 201.939 232.489C201.94 232.488 201.941 232.488 201.941 232.487C201.942 232.487 201.943 232.486 201.945 232.486C201.946 232.486 201.947 232.487 201.948 232.487C201.949 232.488 201.949 232.488 201.95 232.489C201.95 232.49 201.951 232.491 201.951 232.492C201.951 232.493 201.95 232.494 201.95 232.495C201.949 232.495 201.949 232.496 201.948 232.496V232.496C201.948 232.496 201.949 232.497 201.95 232.497C201.95 232.498 201.951 232.498 201.951 232.499C201.951 232.5 201.951 232.501 201.951 232.501C201.951 232.503 201.951 232.504 201.951 232.504C201.95 232.505 201.949 232.506 201.948 232.506C201.947 232.507 201.946 232.507 201.945 232.507ZM201.945 232.505C201.946 232.505 201.946 232.505 201.947 232.504C201.948 232.504 201.948 232.504 201.949 232.503C201.949 232.503 201.949 232.502 201.949 232.501C201.949 232.501 201.949 232.5 201.948 232.499C201.948 232.499 201.948 232.498 201.947 232.498C201.946 232.498 201.945 232.497 201.945 232.497C201.944 232.497 201.943 232.498 201.942 232.498C201.942 232.498 201.941 232.499 201.941 232.499C201.94 232.5 201.94 232.501 201.94 232.501C201.94 232.502 201.94 232.503 201.941 232.503C201.941 232.504 201.942 232.504 201.942 232.504C201.943 232.505 201.944 232.505 201.945 232.505ZM201.945 232.495C201.945 232.495 201.946 232.495 201.947 232.495C201.947 232.495 201.948 232.494 201.948 232.494C201.948 232.493 201.948 232.493 201.948 232.492C201.948 232.491 201.948 232.491 201.948 232.49C201.948 232.49 201.947 232.489 201.947 232.489C201.946 232.489 201.945 232.488 201.945 232.488C201.944 232.488 201.943 232.489 201.943 232.489C201.942 232.489 201.942 232.49 201.941 232.49C201.941 232.491 201.941 232.491 201.941 232.492C201.941 232.493 201.941 232.493 201.941 232.494C201.942 232.494 201.942 232.495 201.943 232.495C201.943 232.495 201.944 232.495 201.945 232.495Z" fill="black"/>
<path fill-rule="evenodd" clip-rule="evenodd" d="M306.252 247.337L251.077 238.236C245.139 241.43 205.924 319.404 203.276 339.403C209.178 339.091 216.594 340.487 225.784 342.392C238.243 344.976 252.524 351.082 267.561 355.775C267.561 355.775 309.755 254.749 306.252 247.337Z" fill="#171D8F"/>
<path fill-rule="evenodd" clip-rule="evenodd" d="M308.979 237.766L243.538 235.043C244.449 249.812 251.865 274.08 252.722 280.846C254.323 293.475 256.155 352.125 256.155 352.125C256.155 352.125 280.837 361.137 296.152 362.942C310.56 364.641 324.604 361.599 324.604 361.599C324.604 361.599 326.028 278.132 324.189 268.098C321.828 255.209 311.401 240.418 308.979 237.766Z" fill="#345BFF"/>
<path d="M308.456 276.865C298.615 279.568 289.666 275.758 283.953 264.992" stroke="black" stroke-width="0.00139" stroke-miterlimit="1.5" stroke-linecap="round" stroke-linejoin="round"/>
<path fill-rule="evenodd" clip-rule="evenodd" d="M347.159 189.579L378.27 212.915C397.747 228.027 377.759 246.794 363.344 238.072C345.511 227.28 329.283 214.318 329.283 214.318L347.159 189.579Z" fill="#FEAC7C"/>
<path fill-rule="evenodd" clip-rule="evenodd" d="M322.535 274.665C312.917 261.66 304.906 274.576 307.163 282.68C308.654 288.03 308.789 286.22 309.986 291.186C312.523 301.717 312.656 307.782 317.51 311.209C322.343 314.622 315.777 300.074 321.357 298.728C328.178 297.083 325.749 320.941 332.11 321.249C334.005 321.34 332.04 311.222 331.424 301.61C331.168 297.613 331.595 293.833 331.097 291.607C330.167 287.448 325.571 278.77 322.535 274.665Z" fill="#FEAC7C"/>
<path fill-rule="evenodd" clip-rule="evenodd" d="M377.426 242.833C398.469 223.939 374.384 201.518 352.92 221.683C331.602 241.71 319.923 262.22 311.471 270.231C298.838 282.206 314.24 294.597 324.658 286.651C336.265 277.799 358.224 260.075 377.426 242.833Z" fill="#FEAC7C"/>
<path d="M341.979 232.741L350.02 225.253" stroke="black" stroke-width="0.00111" stroke-miterlimit="1.5" stroke-linecap="round" stroke-linejoin="round"/>
<path fill-rule="evenodd" clip-rule="evenodd" d="M197.324 233.514C211.511 256.201 234.199 246.532 226.631 226.2C219.603 207.32 186.138 155.791 186.138 155.791C185.143 149.127 186.306 142.62 185.746 138.769C184.219 128.26 181.535 132.086 180.288 135.875C179.768 137.455 179.911 144.672 177.237 143.141C174.256 134.412 170.468 121.309 168.092 121.106C166.251 120.949 163.854 122.128 167.961 134.813C162.35 126.198 156.91 119.936 155.478 120.38C154.274 120.753 155.909 125.877 162.672 138.348C157.876 133.057 152.274 128.546 151.306 129.949C150.588 130.99 152.417 135.283 159.011 144.922C154.365 140.906 149.978 138.067 149.209 139.02C148.288 140.161 150.875 144.696 156.914 150.623C158.003 151.693 160.602 160.491 164.264 166.054C166.5 169.45 171.329 171.598 171.797 173.011C181.61 202.648 197.324 233.514 197.324 233.514Z" fill="#FEAC7C"/>
<path fill-rule="evenodd" clip-rule="evenodd" d="M224.75 189.526L204.968 223.009C192.775 244.435 218.433 254.101 228.4 240.517C240.732 223.712 250.747 205.517 250.747 205.517L224.75 189.526Z" fill="#FEAC7C"/>
<path fill-rule="evenodd" clip-rule="evenodd" d="M318.344 252.164C315.397 253.717 326.201 177.894 322.239 169.687C317.377 159.618 299.644 157.024 286.612 153.999C273.581 150.974 255.651 153.283 244.795 160.442C234.152 167.461 219.164 193.105 219.164 193.105L240.436 201.723L240.409 249.421C241.167 261.611 308.025 257.579 318.344 252.164Z" fill="#FF4B3D"/>
<path d="M174.933 156.433C172.879 152.929 173.222 146.717 177.637 143.687" stroke="black" stroke-width="0.0023" stroke-miterlimit="1.5" stroke-linecap="round" stroke-linejoin="round"/>
<path fill-rule="evenodd" clip-rule="evenodd" d="M287.137 146.615C290.34 144.173 291.161 147.363 296.034 150.737C301.808 154.734 308.626 145.321 311.169 144.353C312.366 143.897 318.632 142.481 319.983 147.347C324.222 114.907 308.269 111.381 303.544 100.816C296.659 85.4184 284.01 84.9023 277.058 83.9037C265.256 82.2086 245.865 77.4524 243.922 144.347C246.589 140.059 262.252 149.001 263.491 149.325C269.513 150.9 282.817 149.908 287.137 146.615Z" fill="#9F3F00"/>
<path fill-rule="evenodd" clip-rule="evenodd" d="M285.809 115.639C289.658 86.9447 255.087 80.2519 248.307 108.342C247.734 110.714 239.978 138.662 259.974 139.75L260.62 162.43C261.8 180.227 285.609 167.946 286.55 157.209C286.55 157.209 283.928 135.865 283.37 129.841C296.734 129.253 294.817 114.451 285.809 115.639Z" fill="#FEAC7C"/>
<path fill-rule="evenodd" clip-rule="evenodd" d="M260.178 147.269C271.568 146.37 273.313 140.742 273.694 137.872C267.668 140.29 259.955 139.767 259.955 139.767C259.955 139.767 260.211 147.251 260.178 147.269Z" fill="black"/>
<path fill-rule="evenodd" clip-rule="evenodd" d="M257.892 112.726L256.869 117.079L254.137 121.775L259.41 122.862C259.608 122.903 259.802 122.776 259.843 122.578C259.883 122.38 259.756 122.187 259.558 122.146L255.281 121.264L257.556 117.353L258.604 112.894C258.651 112.697 258.529 112.5 258.332 112.454C258.135 112.408 257.938 112.53 257.892 112.726Z" fill="#001119"/>
<path d="M254.257 127.397C259.161 129.402 262.286 127.95 264.268 124.277" stroke="black" stroke-width="0.00139" stroke-miterlimit="1.5" stroke-linecap="round" stroke-linejoin="round"/>
<path d="M263.696 123.564C264.083 124.14 264.587 124.364 265.227 124.247" stroke="black" stroke-width="0.00139" stroke-miterlimit="1.5" stroke-linecap="round" stroke-linejoin="round"/>
<path fill-rule="evenodd" clip-rule="evenodd" d="M286.582 121.639C286.994 121.745 287.29 121.887 287.519 122.052C287.879 122.313 288.078 122.634 288.262 123C288.353 123.181 288.28 123.401 288.1 123.491C287.919 123.582 287.699 123.509 287.609 123.329C287.478 123.068 287.347 122.831 287.09 122.645C286.821 122.45 286.425 122.315 285.792 122.236C285.539 122.527 285.324 122.893 285.141 123.324C285.062 123.51 284.847 123.597 284.661 123.518C284.475 123.439 284.389 123.224 284.468 123.038C284.871 122.088 285.422 121.415 286.125 121.047C286.835 120.677 287.708 120.609 288.77 120.923C288.964 120.98 289.074 121.183 289.017 121.377C288.96 121.571 288.756 121.681 288.563 121.624C287.778 121.392 287.123 121.399 286.582 121.639Z" fill="#001119"/>
<path fill-rule="evenodd" clip-rule="evenodd" d="M248.141 132.356C250.048 131.84 251.563 130.234 251.862 128.155C252.263 125.368 250.326 122.779 247.538 122.378C247.137 122.32 246.741 122.311 246.354 122.346C246.349 125.807 246.799 129.37 248.141 132.356Z" fill="#FF4B3D"/>
<path fill-rule="evenodd" clip-rule="evenodd" d="M272.079 125.77C269.291 125.369 266.702 127.307 266.302 130.095C265.901 132.882 267.838 135.471 270.626 135.872C273.414 136.273 276.002 134.335 276.403 131.547C276.804 128.76 274.867 126.171 272.079 125.77Z" fill="#FF4B3D"/>
<path fill-rule="evenodd" clip-rule="evenodd" d="M269.061 115.553C269.947 115.681 270.522 116.789 270.344 118.026C270.166 119.263 269.302 120.164 268.416 120.037C267.531 119.909 266.956 118.801 267.134 117.564C267.312 116.327 268.175 115.426 269.061 115.553Z" fill="black"/>
<path fill-rule="evenodd" clip-rule="evenodd" d="M252.313 113.144C251.427 113.017 250.563 113.918 250.385 115.155C250.207 116.392 250.782 117.5 251.668 117.628C252.554 117.755 253.417 116.854 253.595 115.617C253.773 114.38 253.199 113.272 252.313 113.144Z" fill="black"/>
<path fill-rule="evenodd" clip-rule="evenodd" d="M265.916 111.307C269.562 109.316 271.982 111.316 272.99 112.138C273.372 112.449 273.419 113.002 273.097 113.373C272.775 113.745 272.204 113.794 271.823 113.483C271.105 112.898 269.392 111.417 266.798 112.834C266.362 113.072 265.811 112.923 265.568 112.501C265.324 112.08 265.48 111.545 265.916 111.307Z" fill="black"/>
<path fill-rule="evenodd" clip-rule="evenodd" d="M256.527 109.956C253.59 107.019 250.705 108.256 249.505 108.761C249.052 108.951 248.85 109.468 249.055 109.916C249.259 110.363 249.793 110.57 250.246 110.38C251.1 110.021 253.161 109.083 255.25 111.173C255.602 111.524 256.172 111.537 256.525 111.201C256.877 110.865 256.878 110.308 256.527 109.956Z" fill="black"/>
<path fill-rule="evenodd" clip-rule="evenodd" d="M259.751 87.6609C258.968 88.0516 265.584 112.88 286.709 115.427C287.735 115.551 301.605 117.526 302.949 119.749C306.378 91.3165 286.211 87.1381 276.705 85.772C272.023 85.099 265.599 84.7415 259.751 87.6609Z" fill="#9F3F00"/>
<path fill-rule="evenodd" clip-rule="evenodd" d="M289.274 116.045C293.126 91.7046 281.607 85.5911 274.619 83.8603C276.548 82.2189 278.534 79.8744 279.132 78.6282C280.902 74.9411 282.139 64.0496 282.139 64.0496C282.139 64.0496 275.116 70.3642 273.346 74.0513C272.86 75.0645 271.977 77.2151 271.295 79.3946C271.234 77.9069 271.085 76.5205 270.965 75.7906C270.442 72.5838 266.404 66.2374 266.404 66.2374C266.404 66.2374 264.81 74.8565 265.334 78.0634C265.513 79.1562 266.537 81.4069 267.68 83.0835C262.404 83.3106 255.935 85.9107 251.433 96.9649C251.433 96.9649 256.469 84.9028 271.28 86.7257C277.753 87.5226 289.378 90.438 286.477 115.493L289.274 116.045Z" fill="#345BFF"/>
<path fill-rule="evenodd" clip-rule="evenodd" d="M301.814 164.63C299.901 168.181 299.103 194.286 311.764 207.158C321.32 216.874 327.355 218.704 327.355 218.704L354.563 189.107C354.563 189.107 337 176.4 324.137 167.094C316.347 161.458 306.34 156.225 301.814 164.63Z" fill="#FF4B3D"/>
<path d="M301.814 164.63C299.901 168.181 299.103 194.286 311.764 207.158C321.32 216.875 327.355 218.704 327.355 218.704" stroke="black" stroke-width="0.00139" stroke-miterlimit="1.5" stroke-linecap="round" stroke-linejoin="round"/>
<path fill-rule="evenodd" clip-rule="evenodd" d="M239.394 180.511L239.788 202.759C239.765 203.061 240 203.328 240.313 203.354C240.625 203.38 240.897 203.157 240.92 202.854L240.526 180.607C240.549 180.305 240.314 180.038 240.001 180.012C239.689 179.986 239.417 180.209 239.394 180.511Z" fill="black"/>
<path fill-rule="evenodd" clip-rule="evenodd" d="M153.074 315.809C151.919 318.566 149.175 320.021 146.36 319.032C143.545 318.043 142.148 315.133 143.137 312.318L153.074 315.809ZM168.837 315.951C168.564 315.669 168.457 315.446 168.125 315.329C166.868 314.143 166.29 312.08 166.093 310.522C165.574 308.293 165.833 305.966 166.59 303.813L168.917 297.189C171.302 290.399 168.088 283.131 161.921 280.034L162.56 278.212C162.91 277.219 162.48 276.323 161.486 275.974C160.493 275.625 159.597 276.055 159.248 277.049L158.608 278.87C151.859 277.429 144.747 281.256 142.42 287.881L140.093 294.505C139.395 296.492 138.2 298.305 136.79 299.67C135.662 300.762 134.427 301.63 132.919 302.217C132.247 302.539 131.527 302.472 130.914 302.629C130.359 302.62 129.853 303 129.62 303.663C129.271 304.656 129.701 305.551 130.694 305.9L167.127 318.699C168.121 319.049 169.016 318.619 169.365 317.625C169.316 317.236 169.218 316.457 168.837 315.951Z" fill="#FF897B"/>
<path d="M152.323 276.284C147.715 277.012 144.362 279.054 142.307 282.452" stroke="#FF897B" stroke-width="0.00625" stroke-miterlimit="1.5" stroke-linecap="round" stroke-linejoin="round"/>
<path d="M168.443 281.948C171.584 285.398 172.923 289.088 172.402 293.025" stroke="#FF897B" stroke-width="0.00625" stroke-miterlimit="1.5" stroke-linecap="round" stroke-linejoin="round"/>
<path d="M88.7797 82.2235C100.859 82.2235 110.65 72.4317 110.65 60.3529C110.65 48.274 100.859 38.4822 88.7797 38.4822C76.7008 38.4822 66.909 48.274 66.909 60.3529C66.909 72.4317 76.7008 82.2235 88.7797 82.2235Z" fill="#FF897B"/>
<path fill-rule="evenodd" clip-rule="evenodd" d="M88.1691 60.9636H98.0395V59.742H89.3905V42.4441H88.1691V60.9636Z" fill="white"/>
<path fill-rule="evenodd" clip-rule="evenodd" d="M71.5841 292.121C71.5841 292.121 63.9218 281.092 63.9218 276.366C63.9218 271.975 67.3552 268.41 71.5841 268.41C75.8132 268.41 79.2465 271.975 79.2465 276.366C79.2465 281.092 71.5841 292.121 71.5841 292.121ZM71.5841 270.504C74.2272 270.504 76.3728 272.732 76.3728 275.476C76.3728 278.22 74.2272 280.448 71.5841 280.448C68.9413 280.448 66.7956 278.22 66.7956 275.476C66.7956 272.732 68.9413 270.504 71.5841 270.504Z" fill="#FF897B"/>
</g>
<defs>
<clipPath id="clip0_128_5458">
<rect width="402" height="402" fill="white"/>
</clipPath>
</defs>
</svg>
